:SAMPLES-PER-SECOND 30
:FULLY-SPECIFIED
:DEGREES
292
root  5.62074 40.5089 -9.36946 -6.5043 -62.3579 -0.293971
RightUpLeg  -9.09992 1.4775 -5.49905
RightLeg  24.9153 -3.08165 -1.76961
RightFoot  -7.22744 -0.270942 6.17551
RightToes  0.000482159 0.542163 -0.142577
Spine  12.1143 -1.38892 -0.450252
Spine1  7.098 -1.14299 -1.94639
HEad  -24.6545 7.40808 -0.855036
LeftShoulder1  10.5944 -15.719 -48.1129
LeftArm  -5.41218 -0.60857 -15.671
LeftForeArm  18.0646 -20.7396 -4.11939
LeftHand  -0.25398 0.0180481 5.50724
RightShoulder  6.53315 11.2395 38.2555
RightArm  0.254447 -9.50406 35.9593
RightForeArm  -4.08744 34.4746 7.95487
RightHand  -2.13225 4.79144 -24.3211
LeftUpLeg  -0.97368 7.13194 1.28368
LeftLeg  5.77111 22.2228 -5.13366
LeftFoot  0.00805499 -0.559539 5.62573
LeftToes  1.06248e-005 4.65854e-005 -8.185e-006
293
root  5.44699 40.5014 -9.09824 -7.23746 -60.9134 0.450273
RightUpLeg  -7.96531 2.99301 -5.24696
RightLeg  19.7225 -1.13693 -0.732332
RightFoot  -7.84855 -0.232843 5.86575
RightToes  0.000482159 0.542163 -0.142577
Spine  11.747 -1.69254 -0.652564
Spine1  7.47631 -1.41675 -2.16478
HEad  -25.9331 6.17283 -0.419588
LeftShoulder1  10.8998 -16.1396 -48.4432
LeftArm  -3.13026 -2.88394 -15.1182
LeftForeArm  17.5568 -20.9276 -4.19338
LeftHand  -0.25398 0.0180481 5.50724
RightShoulder  6.78364 11.5919 38.8548
RightArm  2.02154 -8.19857 35.7252
RightForeArm  -5.06109 30.8499 7.02273
RightHand  -2.19142 5.15107 -24.1598
LeftUpLeg  -0.353338 6.75769 0.51023
LeftLeg  5.40492 21.3507 -5.39898
LeftFoot  -0.28064 -0.563349 5.83041
LeftToes  1.06248e-005 4.65854e-005 -8.185e-006
294
root  5.23004 40.5211 -8.83249 -8.18713 -58.9781 1.44388
RightUpLeg  -6.32466 2.33758 -5.03777
RightLeg  14.4267 4.52838 0.529766
RightFoot  -5.47437 -0.261443 4.51509
RightToes  0.000482159 0.542163 -0.142577
Spine  10.9189 -1.92379 -0.861844
Spine1  7.95507 -1.62216 -2.23699
HEad  -26.2067 4.57247 -0.199199
LeftShoulder1  11.0958 -16.5169 -48.3823
LeftArm  -0.256592 -4.70087 -15.4661
LeftForeArm  17.1192 -21.3004 -4.22328
LeftHand  -0.25398 0.0180481 5.50724
RightShoulder  6.95036 11.8446 39.1847
RightArm  4.42325 -7.20726 35.8355
RightForeArm  -6.96575 26.0747 5.94797
RightHand  -2.16925 5.29442 -23.6199
LeftUpLeg  0.665399 6.11511 -0.494216
LeftLeg  4.30877 20.2265 -5.86221
LeftFoot  -0.201766 -0.606681 6.22606
LeftToes  1.06248e-005 4.65854e-005 -8.185e-006
295
root  5.00003 40.5649 -8.5829 -8.94019 -57.0186 2.20271
RightUpLeg  -4.98369 0.0572128 -4.63604
RightLeg  11.435 11.0618 0.671688
RightFoot  -1.88789 -0.181367 2.02751
RightToes  0.000482159 0.542163 -0.142577
Spine  9.99358 -1.94321 -0.720532
Spine1  8.28984 -1.56868 -2.29017
HEad  -25.5734 2.66755 -0.423135
LeftShoulder1  11.2448 -16.729 -48.5181
LeftArm  2.73399 -6.14423 -16.1836
LeftForeArm  17.1809 -22.0809 -4.15153
LeftHand  -0.25398 0.0180481 5.50724
RightShoulder  7.01454 11.9171 39.378
RightArm  5.53971 -6.50009 35.9337
RightForeArm  -7.50521 20.6845 5.63406
RightHand  -2.03487 5.10014 -22.601
LeftUpLeg  1.78727 5.31214 -1.4897
LeftLeg  3.07775 19.1707 -6.11779
LeftFoot  0.0218394 -0.661625 6.64138
LeftToes  1.06248e-005 4.65854e-005 -8.185e-006
296
root  4.80486 40.6034 -8.35153 -9.23132 -55.5994 2.39977
RightUpLeg  -4.23183 -0.436869 -4.62796
RightLeg  11.1644 12.5543 0.559109
RightFoot  -0.320133 -0.0365855 0.322766
RightToes  0.000482159 0.542163 -0.142577
Spine  9.32328 -1.71352 0.220499
Spine1  8.38941 -1.09912 -2.80193
HEad  -24.8097 0.754644 -1.00761
LeftShoulder1  11.4044 -16.7728 -49.1045
LeftArm  4.71791 -7.03271 -16.8626
LeftForeArm  18.4308 -23.5264 -4.10045
LeftHand  -0.25398 0.0180481 5.50724
RightShoulder  7.04606 11.9156 39.5767
RightArm  0.937554 -5.98283 35.6358
RightForeArm  -2.13316 14.9921 7.17114
RightHand  -1.83191 4.56049 -21.4848
LeftUpLeg  2.5987 4.69253 -2.15918
LeftLeg  2.4935 18.4617 -5.98202
LeftFoot  0.0253501 -0.688276 6.90763
LeftToes  1.06248e-005 4.65854e-005 -8.185e-006
